<svg width="670" height="364" viewBox="0 0 670 364" fill="none" xmlns="http://www.w3.org/2000/svg">
<rect width="670" height="364" fill="#1E1E1E"/>
<rect width="670" height="364" fill="white"/>
<g filter="url(#filter0_d_0_1)">
<path d="M573.203 142.935L462.634 162.431L464.134 170.936L574.703 151.44L573.203 142.935Z" fill="#232941" fill-opacity="0.85"/>
<path d="M580.987 187.47L470.418 206.966L471.918 215.471L582.487 195.975L580.987 187.47Z" fill="#232941" fill-opacity="0.85"/>
<path d="M585.593 163.856L458.013 186.352L459.513 194.857L587.093 172.362L585.593 163.856Z" fill="#232941" fill-opacity="0.85"/>
<path d="M625.683 155.949L571.193 233.768L577.179 237.96L631.669 160.14L625.683 155.949Z" fill="#232941"/>
<path d="M549.658 111.636L627.477 166.126L631.668 160.14L553.849 105.65L549.658 111.636Z" fill="#232941"/>
<path d="M648.653 150.944L584.255 242.914L591.33 247.868L655.728 155.897L648.653 150.944Z" fill="#232941"/>
<path d="M558.805 98.5737L650.775 162.972L655.729 155.897L563.758 91.4991L558.805 98.5737Z" fill="#232941"/>
<path d="M86.9007 201.822L197.47 221.318L198.97 212.813L88.4004 193.316L86.9007 201.822Z" fill="#232941" fill-opacity="0.85"/>
<path d="M94.8187 157.311L205.388 176.807L206.888 168.302L96.3184 148.805L94.8187 157.311Z" fill="#232941" fill-opacity="0.85"/>
<path d="M82.4141 177.924L209.994 200.42L211.494 191.915L83.9139 169.419L82.4141 177.924Z" fill="#232941" fill-opacity="0.85"/>
<path d="M18.7397 168.489L110.71 104.091L105.756 97.0164L13.786 161.415L18.7397 168.489Z" fill="#232941"/>
<path d="M85.259 248.431L20.8607 156.461L13.786 161.415L78.1843 253.385L85.259 248.431Z" fill="#232941"/>
<path d="M42.0376 171.644L119.857 117.154L115.665 111.168L37.846 165.658L42.0376 171.644Z" fill="#232941"/>
<path d="M98.3215 239.285L43.8317 161.466L37.8456 165.658L92.3353 243.477L98.3215 239.285Z" fill="#232941"/>
</g>
<g filter="url(#filter1_f_0_1)">
<path d="M343.372 348.731C339.523 355.397 329.9 355.397 326.051 348.731L137.636 22.3857C133.067 14.4718 140.73 4.6449 149.591 6.87848C185.391 15.9026 255.863 30.5606 334.711 30.1761C413.81 29.7904 484.477 15.3401 520.17 6.57865C528.995 4.41243 536.529 14.1721 531.986 22.0415L343.372 348.731Z" fill="#232941" fill-opacity="0.85"/>
</g>
<g filter="url(#filter2_d_0_1)">
<path d="M344.66 313.339C340.811 320.006 331.189 320.006 327.34 313.339L173.924 47.6163C169.355 39.7025 177.037 29.8325 185.915 32.0002C216.842 39.5521 273.236 50.6834 336 50.3774C398.995 50.0702 455.573 39.0581 486.426 31.7098C495.265 29.6045 502.818 39.4027 498.274 47.2722L344.66 313.339Z" fill="#232941"/>
</g>
<g filter="url(#filter3_d_0_1)">
<path d="M271 76.2306C271 68.4986 277.268 62.2306 285 62.2306H386C386 69.9626 379.732 76.2306 372 76.2306H271Z" fill="#D2D2D2"/>
<path d="M253 137.231C253 136.126 253.895 135.231 255 135.231H350.667C351.955 135.231 353 136.275 353 137.564C353 144.007 347.777 149.231 341.333 149.231H255C253.895 149.231 253 148.335 253 147.231V137.231Z" fill="#D2D2D2"/>
<path d="M271 208.231H386C386 215.963 379.732 222.231 372 222.231H285C277.268 222.231 271 215.963 271 208.231Z" fill="#D2D2D2"/>
<path d="M286 222.231C277.716 222.231 271 215.515 271 207.231V77.2306C271 68.9463 277.716 62.2306 286 62.2306V222.231Z" fill="#D2D2D2"/>
</g>
<g filter="url(#filter4_d_0_1)">
<path d="M321 185.231C321 176.946 327.716 170.231 336 170.231V275.231C336 283.515 329.284 290.231 321 290.231V185.231Z" fill="#D2D2D2"/>
<path d="M321 185.231C321 176.946 327.716 170.231 336 170.231H396C404.284 170.231 411 176.946 411 185.231H321Z" fill="#D2D2D2"/>
</g>
<defs>
<filter id="filter0_d_0_1" x="9.78598" y="91.4991" width="649.943" height="169.886" filterUnits="userSpaceOnUse" color-interpolation-filters="sRGB">
<feFlood flood-opacity="0" result="BackgroundImageFix"/>
<feColorMatrix in="SourceAlpha" type="matrix" values="0 0 0 0 0 0 0 0 0 0 0 0 0 0 0 0 0 0 127 0" result="hardAlpha"/>
<feOffset dy="4"/>
<feGaussianBlur stdDeviation="2"/>
<feComposite in2="hardAlpha" operator="out"/>
<feColorMatrix type="matrix" values="0 0 0 0 0 0 0 0 0 0 0 0 0 0 0 0 0 0 0.25 0"/>
<feBlend mode="normal" in2="BackgroundImageFix" result="effect1_dropShadow_0_1"/>
<feBlend mode="normal" in="SourceGraphic" in2="effect1_dropShadow_0_1" result="shape"/>
</filter>
<filter id="filter1_f_0_1" x="135.273" y="5.27228" width="399.077" height="349.458" filterUnits="userSpaceOnUse" color-interpolation-filters="sRGB">
<feFlood flood-opacity="0" result="BackgroundImageFix"/>
<feBlend mode="normal" in="SourceGraphic" in2="BackgroundImageFix" result="shape"/>
<feGaussianBlur stdDeviation="0.5" result="effect1_foregroundBlur_0_1"/>
</filter>
<filter id="filter2_d_0_1" x="168.563" y="31.4201" width="335.073" height="297.919" filterUnits="userSpaceOnUse" color-interpolation-filters="sRGB">
<feFlood flood-opacity="0" result="BackgroundImageFix"/>
<feColorMatrix in="SourceAlpha" type="matrix" values="0 0 0 0 0 0 0 0 0 0 0 0 0 0 0 0 0 0 127 0" result="hardAlpha"/>
<feOffset dy="7"/>
<feGaussianBlur stdDeviation="2"/>
<feComposite in2="hardAlpha" operator="out"/>
<feColorMatrix type="matrix" values="0 0 0 0 0 0 0 0 0 0 0 0 0 0 0 0 0 0 0.25 0"/>
<feBlend mode="normal" in2="BackgroundImageFix" result="effect1_dropShadow_0_1"/>
<feBlend mode="normal" in="SourceGraphic" in2="effect1_dropShadow_0_1" result="shape"/>
</filter>
<filter id="filter3_d_0_1" x="249" y="62.2306" width="141" height="169" filterUnits="userSpaceOnUse" color-interpolation-filters="sRGB">
<feFlood flood-opacity="0" result="BackgroundImageFix"/>
<feColorMatrix in="SourceAlpha" type="matrix" values="0 0 0 0 0 0 0 0 0 0 0 0 0 0 0 0 0 0 127 0" result="hardAlpha"/>
<feOffset dy="5"/>
<feGaussianBlur stdDeviation="2"/>
<feComposite in2="hardAlpha" operator="out"/>
<feColorMatrix type="matrix" values="0 0 0 0 0 0 0 0 0 0 0 0 0 0 0 0 0 0 0.25 0"/>
<feBlend mode="normal" in2="BackgroundImageFix" result="effect1_dropShadow_0_1"/>
<feBlend mode="normal" in="SourceGraphic" in2="effect1_dropShadow_0_1" result="shape"/>
</filter>
<filter id="filter4_d_0_1" x="317" y="170.231" width="98" height="129" filterUnits="userSpaceOnUse" color-interpolation-filters="sRGB">
<feFlood flood-opacity="0" result="BackgroundImageFix"/>
<feColorMatrix in="SourceAlpha" type="matrix" values="0 0 0 0 0 0 0 0 0 0 0 0 0 0 0 0 0 0 127 0" result="hardAlpha"/>
<feOffset dy="5"/>
<feGaussianBlur stdDeviation="2"/>
<feComposite in2="hardAlpha" operator="out"/>
<feColorMatrix type="matrix" values="0 0 0 0 0 0 0 0 0 0 0 0 0 0 0 0 0 0 0.25 0"/>
<feBlend mode="normal" in2="BackgroundImageFix" result="effect1_dropShadow_0_1"/>
<feBlend mode="normal" in="SourceGraphic" in2="effect1_dropShadow_0_1" result="shape"/>
</filter>
</defs>
</svg>
